<svg width="188" height="29" viewBox="0 0 188 29" fill="none" xmlns="http://www.w3.org/2000/svg">
<path d="M0 12.3966H3.38739C5.45746 12.2947 7.15116 14.0276 7.24525 16.1682C7.33934 18.3089 5.73975 20.2457 3.76377 20.3476C3.66967 20.3476 3.48148 20.3476 3.38739 20.3476H1.5996V24.8327H0V12.3966ZM3.38739 18.8186C4.61061 18.9205 5.73975 17.9011 5.73975 16.576C5.73975 15.2508 4.8929 14.0276 3.66968 14.0276C3.57558 14.0276 3.48148 14.0276 3.38739 14.0276H1.5996V18.9205H3.38739V18.8186Z" fill="black"/>
<path d="M8.2803 20.5515C8.1862 17.9011 10.0681 15.6586 12.5145 15.5566C14.961 15.4547 17.031 17.4934 17.1251 20.1437C17.2192 22.794 15.3373 25.0366 12.8909 25.1385C12.7968 25.1385 12.7968 25.1385 12.7027 25.1385C10.3504 25.2405 8.37439 23.3037 8.2803 20.8573C8.2803 20.7553 8.2803 20.6534 8.2803 20.5515ZM12.7027 23.6095C14.3023 23.6095 15.5255 22.2844 15.5255 20.5515C15.5255 18.8186 14.3023 17.4934 12.7027 17.4934C11.1031 17.4934 9.87989 18.8186 9.87989 20.5515C9.7858 22.1824 11.009 23.5076 12.5145 23.6095C12.6086 23.6095 12.6086 23.6095 12.7027 23.6095Z" fill="black"/>
<path d="M17.3132 16.1682H19.101L21.7357 22.5901L24.3703 16.1682H25.6876L28.3223 22.5901L30.9569 16.1682H32.7447L28.9809 24.8327H27.6636L25.029 18.8185L22.3943 24.8327H21.077L17.3132 16.1682Z" fill="black"/>
<path d="M32.9329 20.5512C32.8388 18.1048 34.6266 15.9641 36.979 15.9641C37.0731 15.9641 37.1672 15.9641 37.2613 15.9641C39.8959 15.9641 41.5896 18.2067 41.4955 21.1628H34.6266C34.8148 22.5899 35.9439 23.7112 37.3554 23.7112C38.3904 23.8131 39.3313 23.0996 39.6136 22.0802L41.1191 22.6918C40.4605 24.3228 38.955 25.3422 37.2613 25.2402C35.003 25.3422 33.027 23.4054 33.027 20.857C32.9329 20.7551 32.9329 20.6531 32.9329 20.5512ZM39.6136 19.7357C39.5195 18.4106 38.3904 17.3912 37.1672 17.4931C35.9439 17.4931 34.8148 18.4106 34.5325 19.7357H39.6136Z" fill="black"/>
<path d="M43.001 16.168H44.6006V17.799C45.1652 16.5758 46.3884 15.9642 47.6116 16.168V17.9009C45.8239 17.5951 44.6006 18.4106 44.6006 20.1435V24.9344H43.001V16.168Z" fill="black"/>
<path d="M48.1762 20.5512C48.0821 18.1048 49.8699 15.9641 52.2222 15.9641C52.3163 15.9641 52.4104 15.9641 52.5045 15.9641C55.1391 15.9641 56.8328 18.2067 56.7387 21.1628H49.8699C50.058 22.5899 51.1872 23.7112 52.5986 23.7112C53.6336 23.8131 54.5746 23.0996 54.8568 22.0802L56.3623 22.6918C55.7037 24.3228 54.1982 25.3422 52.5045 25.2402C50.2462 25.3422 48.2703 23.4054 48.1762 20.9589C48.1762 20.7551 48.1762 20.6531 48.1762 20.5512ZM54.9509 19.7357C54.8568 18.4106 53.7277 17.3912 52.5045 17.4931C51.2813 17.4931 50.1521 18.4106 49.8699 19.7357H54.9509Z" fill="black"/>
<path d="M65.019 23.4052C64.3604 24.4245 63.1371 25.0361 62.008 25.0361C59.7497 25.0361 57.8679 22.9974 57.8679 20.551C57.8679 18.1045 59.7497 16.0658 62.008 16.0658C63.2312 16.0658 64.3604 16.6774 65.019 17.6968V11.6826H66.6186V24.8322H65.019V23.4052ZM62.3844 23.5071C63.8899 23.5071 65.1131 22.1819 65.1131 20.551C65.1131 18.92 63.8899 17.5948 62.3844 17.5948C60.8789 17.5948 59.6556 18.92 59.6556 20.551C59.5615 22.08 60.6907 23.4052 62.1021 23.5071C62.1962 23.5071 62.2903 23.5071 62.3844 23.5071Z" fill="black"/>
<path d="M73.3934 24.8322V11.6826H74.993V17.6968C75.7457 16.6774 76.8748 16.0658 78.004 16.0658C80.2622 16.0658 82.1441 18.1045 82.1441 20.551C82.1441 22.9974 80.2622 25.0361 78.004 25.0361C76.7808 25.0361 75.6516 24.4245 74.993 23.4052V24.8322H73.3934ZM77.6276 23.5071C79.1331 23.5071 80.3563 22.2839 80.4504 20.6529C80.4504 19.0219 79.3213 17.6968 77.8158 17.5948C76.3103 17.5948 75.0871 18.8181 74.993 20.449C74.993 20.449 74.993 20.449 74.993 20.551C74.8989 22.08 76.028 23.4052 77.5335 23.5071H77.6276Z" fill="black"/>
<path d="M85.8137 24.5269L82.2382 16.1682H84.026L86.6606 22.5901L89.2952 16.1682H91.083L87.2252 24.8327L85.8137 28.4004H84.026L85.8137 24.5269Z" fill="black"/>
<path d="M113.101 8.93018C110.749 8.93018 108.867 9.84759 107.644 11.5805H107.361V9.33792H105.197V24.8321H107.361V16.6773C107.361 13.3134 109.337 11.2747 112.725 11.2747C115.736 11.2747 117.429 13.2115 117.429 16.2695V24.7302H119.594V15.8618C119.688 11.6824 117.429 8.93018 113.101 8.93018Z" fill="#0958BA"/>
<path d="M99.928 9.33838H97.7638V24.8326H99.928V9.33838Z" fill="#0958BA"/>
<path d="M131.732 8.93018C126.839 8.93018 123.357 12.294 123.357 17.085C123.357 21.876 126.839 25.2398 131.732 25.2398C136.625 25.2398 140.106 21.876 140.106 17.085C140.106 12.396 136.531 8.93018 131.732 8.93018ZM131.732 22.9972C128.156 22.9972 125.522 20.5508 125.522 17.085C125.522 13.7211 128.062 11.1728 131.732 11.1728C135.307 11.1728 137.942 13.6192 137.942 17.085C137.848 20.5508 135.307 22.8953 131.732 22.9972Z" fill="#0958BA"/>
<path d="M102.939 3.73193H94.7527V6.07643H102.939V3.73193Z" fill="black"/>
<path d="M157.137 14.4348C158.454 13.7212 159.207 12.396 159.207 10.5612C159.207 7.70702 157.325 5.97412 154.22 5.97412H143.964V24.6283H144.999H154.408C157.984 24.6283 160.148 22.4876 160.148 19.1238C160.148 16.9831 159.113 15.2502 157.137 14.4348ZM146.222 8.42057H154.22C155.914 8.42057 157.043 9.43992 157.043 11.0709C157.043 12.8038 156.008 13.7212 154.22 13.7212H146.222V8.42057ZM154.408 22.5896H146.222V15.9638H154.408C156.573 15.9638 157.984 17.187 157.984 19.3277C157.984 21.4683 156.573 22.5896 154.408 22.5896Z" fill="black"/>
<path d="M184.989 21.3666V11.7847H182.825V21.4686C182.825 23.6092 184.048 24.8324 186.118 24.8324H188V22.5899H186.306C185.459 22.5899 184.989 22.0802 184.989 21.3666Z" fill="black"/>
<path d="M170.687 8.93031C168.146 8.93031 165.512 9.84773 163.912 11.5806L165.512 13.2116C166.829 11.8864 168.711 11.2748 170.687 11.2748C173.133 11.2748 175.391 12.2942 175.391 15.0464V15.2503L170.216 15.4542C165.229 15.658 163.065 17.6967 163.065 20.6529C163.065 23.5071 165.323 25.138 168.711 25.138C171.628 25.138 173.98 24.1187 175.109 22.2838H175.391V24.9342H177.556V15.2503C177.556 11.2748 175.58 8.82838 170.687 8.93031ZM175.391 17.6967C175.391 20.7548 172.851 22.9974 169.275 22.9974C166.923 22.9974 165.512 21.978 165.512 20.3471C165.512 18.7161 166.735 17.5948 170.687 17.4929L175.58 17.289L175.391 17.6967Z" fill="black"/>
<path d="M184.989 3.73166V0.469727H182.731V3.73166H179.814V6.07618H182.731V9.33811H184.989V6.07618H187.906V3.73166H184.989Z" fill="#0958BA"/>
</svg>
