<svg width="26" height="26" viewBox="0 0 26 26" fill="none" xmlns="http://www.w3.org/2000/svg">
<path d="M23.5555 6.63811C22.7704 6.99132 21.9339 7.22543 21.0618 7.33911C21.959 6.78968 22.6438 5.92629 22.9657 4.88562C22.1292 5.39716 21.2056 5.75848 20.2213 5.96012C19.427 5.09267 18.2949 4.55542 17.0599 4.55542C14.6638 4.55542 12.7347 6.55015 12.7347 8.99552C12.7347 9.34737 12.7638 9.68569 12.835 10.0078C9.2369 9.82779 6.05308 8.05905 3.91426 5.36468C3.54086 6.02914 3.32183 6.78968 3.32183 7.60841C3.32183 9.14573 4.0937 10.5085 5.24426 11.2974C4.54891 11.2839 3.86676 11.0769 3.28884 10.7507C3.28884 10.7643 3.28884 10.7818 3.28884 10.7994C3.28884 12.9566 4.78905 14.7483 6.75634 15.161C6.40405 15.2598 6.02009 15.3072 5.62162 15.3072C5.34454 15.3072 5.06481 15.291 4.80224 15.2314C5.36301 16.9893 6.95426 18.2817 8.84634 18.3237C7.37384 19.5051 5.50419 20.2169 3.48016 20.2169C3.12523 20.2169 2.78481 20.2006 2.4444 20.156C4.36155 21.424 6.63363 22.148 9.08384 22.148C17.048 22.148 21.4022 15.3816 21.4022 9.51653C21.4022 9.32031 21.3956 9.13085 21.3863 8.94274C22.2453 8.31753 22.967 7.53669 23.5555 6.63811Z" fill="#0252C1"/>
</svg>
