<svg width="26" height="26" viewBox="0 0 26 26" fill="none" xmlns="http://www.w3.org/2000/svg">
<path fill-rule="evenodd" clip-rule="evenodd" d="M7.06245 4.75336C7.06245 6.0286 6.02867 7.06239 4.75342 7.06239C3.47818 7.06239 2.4444 6.0286 2.4444 4.75336C2.4444 3.47812 3.47818 2.44434 4.75342 2.44434C6.02867 2.44434 7.06245 3.47812 7.06245 4.75336ZM7.16537 9.04156H2.4444V23.5554H7.16537V9.04156ZM20.0247 9.21177C20.008 9.20649 19.9915 9.20106 19.9751 9.19564C19.9423 9.18479 19.9094 9.17394 19.8743 9.16427C19.8109 9.14975 19.7476 9.13788 19.6829 9.12732C19.4322 9.07718 19.1578 9.04156 18.8359 9.04156C16.0835 9.04156 14.3379 11.0432 13.7626 11.8164V9.04156H9.04162V23.5554H13.7626V15.6388C13.7626 15.6388 17.3304 10.6698 18.8359 14.3193V23.5554H23.5555V13.7612C23.5555 11.5683 22.0527 9.74086 20.0247 9.21177Z" fill="#0252C1"/>
</svg>
