<svg width="26" height="26" viewBox="0 0 26 26" fill="none" xmlns="http://www.w3.org/2000/svg">
<path d="M22.6583 6.96731C22.0856 5.97957 21.4642 5.79789 20.1988 5.72879C18.9348 5.64563 15.7563 5.61108 13.0026 5.61108C10.2436 5.61108 7.06377 5.64563 5.80106 5.72752C4.53836 5.79789 3.91558 5.97829 3.33766 6.96731C2.74787 7.95378 2.4444 9.6529 2.4444 12.6443C2.4444 12.6468 2.4444 12.6481 2.4444 12.6481C2.4444 12.6507 2.4444 12.652 2.4444 12.652V12.6545C2.4444 15.6331 2.74787 17.345 3.33766 18.3213C3.91558 19.309 4.53704 19.4881 5.79974 19.5713C7.06377 19.6429 10.2436 19.6852 13.0026 19.6852C15.7563 19.6852 18.9348 19.6429 20.2002 19.5726C21.4655 19.4894 22.087 19.3103 22.6596 18.3225C23.2547 17.3463 23.5555 15.6344 23.5555 12.6558C23.5555 12.6558 23.5555 12.652 23.5555 12.6494C23.5555 12.6494 23.5555 12.6468 23.5555 12.6456C23.5555 9.6529 23.2547 7.95378 22.6583 6.96731ZM10.3611 16.4865V8.80974L16.9583 12.6481L10.3611 16.4865Z" fill="#0252C1"/>
</svg>
